<svg xmlns="http://www.w3.org/2000/svg" xmlns:xlink="http://www.w3.org/1999/xlink" width="57" height="57" viewBox="0 0 57 57"><defs><path id="kj66a" d="M984.39 1912.52a1.12 1.12 0 0 0-1.46-.7l-11.8 4.52c-.6.23-.9.9-.68 1.52.17.47.6.77 1.06.77.13 0 .27-.03.4-.08l11.8-4.51c.6-.23.9-.9.68-1.52z"/><path id="kj66b" d="M984.39 1907.72a1.12 1.12 0 0 0-1.46-.7l-9.33 3.58c-.6.22-.9.9-.67 1.51.16.48.6.77 1.06.77.13 0 .26-.02.4-.07l9.33-3.57c.58-.23.89-.9.67-1.52z"/><path id="kj66c" d="M984.39 1902.97a1.12 1.12 0 0 0-1.46-.7l-9.33 3.58c-.6.22-.9.9-.67 1.51.16.48.6.77 1.06.77.13 0 .26-.02.4-.07l9.33-3.57c.58-.23.89-.9.67-1.52z"/><path id="kj66d" d="M986.73 1915.4l-25.1 9.6v-31.18l25.1-9.6zm-26.23-23.65l-4.45-1.7 9.38-3.6c.45-.17.75-.61.75-1.1 0-.5-.3-.94-.75-1.11l-12.26-4.7a1.1 1.1 0 0 0-.78 0l-11.89 4.55-4.08-1.56 24.08-9.22 24.08 9.22zm-16.7-6.4l8.98-3.45 8.98 3.44-8.98 3.44zm7.84 5.52v12.58l-9.99-3.83v-12.58zm7.72 34.14zm-25.09-9.6v-31.2l5.11 1.96v14.27c0 .5.3.94.74 1.1l12.27 4.7a1.1 1.1 0 0 0 1.04-.14c.3-.22.48-.58.48-.96v-13.4l5.45 2.08v31.19zm53.99-33.99l-27.37-10.47a1.1 1.1 0 0 0-.78 0l-27.37 10.47a1.2 1.2 0 0 0-.74 1.1v33.7c0 .5.3.94.74 1.11l27.37 10.47a1.1 1.1 0 0 0 .78 0l27.37-10.47c.44-.17.74-.61.74-1.1v-33.7c0-.5-.3-.94-.74-1.1z"/></defs><g><g transform="translate(-932 -1871)"><g><g><g><use xlink:href="#kj66a"/></g></g></g><g><g><g><use xlink:href="#kj66b"/></g></g></g><g><g><g><use xlink:href="#kj66c"/></g></g></g><g><g><g><use xlink:href="#kj66d"/></g></g></g></g></g></svg>