<svg xmlns="http://www.w3.org/2000/svg" xmlns:xlink="http://www.w3.org/1999/xlink" width="75" height="66" viewBox="0 0 75 66"><defs><path id="lhuja" d="M755.49 668.46c0 .51-.42.93-.94.93h-19.72a.93.93 0 0 1-.94-.93v-15.17c0-.52.42-.93.94-.93h12.99a.93.93 0 1 0 0-1.86h-13c-.17 0-.33.01-.5.04 1.05-5.6 5.15-9.52 10.18-9.52h.38c5.08 0 9.06 3.84 10 9.49l-2.11-.01a.93.93 0 1 0 0 1.86h1.82c.5 0 .9.41.9.93v15.17zm1.39-16.91c-.62-7.3-5.56-12.4-12-12.4h-.38c-6.46 0-11.6 5.35-12.23 12.72-.01.09-.24 1-.24 1.42v15.17a2.8 2.8 0 0 0 2.8 2.8h19.72a2.8 2.8 0 0 0 2.8-2.8v-15.17a2.8 2.8 0 0 0-.47-1.56v-.18z"/><path id="lhujb" d="M747.42 661.96a.93.93 0 0 0-.94.93 1.8 1.8 0 0 1-3.58 0v-4.04c0-.99.8-1.8 1.79-1.8a.93.93 0 1 0 0-1.85 3.66 3.66 0 0 0-3.66 3.65v4.04a3.66 3.66 0 0 0 7.32 0 .93.93 0 0 0-.93-.93z"/><path id="lhujc" d="M733.7 641.02c.52 0 .94-.42.94-.93v-20.96c0-.72.26-1.33.73-1.7.48-.39 1.13-.51 1.83-.36l28.5 6.34c2.15.48 5.65.43 7.8-.1l28.68-7.16c.55-.14 2.23-.56 2.2-1.8-.02-1.23-1.71-1.59-2.27-1.7l-28.42-5.93a22.74 22.74 0 0 0-7.8 0l-24.04 5.01a.93.93 0 1 0 .38 1.83l24.04-5.02c1.91-.4 5.13-.4 7.04 0l28.15 5.87-28.42 7.1c-1.87.46-5.05.5-6.94.08l-28.5-6.33a3.94 3.94 0 0 0-3.4.71 3.94 3.94 0 0 0-1.43 3.16v20.96c0 .51.42.93.93.93z"/><path id="lhujd" d="M805.88 619.4a.93.93 0 0 0-.93.93v36.91a4.3 4.3 0 0 1-2.97 3.88l-28.58 7.71c-1.85.5-4.96.5-6.79 0l-3.62-.98a.93.93 0 0 0-.49 1.8l3.62.98c1.08.3 2.47.44 3.87.44s2.8-.14 3.9-.44l28.57-7.72a6.12 6.12 0 0 0 4.35-5.67v-36.91a.93.93 0 0 0-.93-.93z"/></defs><g><g transform="translate(-732 -606)"><g><g><use xlink:href="#lhuja"/></g><g><use xlink:href="#lhujb"/></g><g><use xlink:href="#lhujc"/></g><g><use xlink:href="#lhujd"/></g></g></g></g></svg>