<svg xmlns="http://www.w3.org/2000/svg" xmlns:xlink="http://www.w3.org/1999/xlink" width="61" height="72" viewBox="0 0 61 72"><defs><path id="mflna" d="M1085.63 674.55a23 23 0 0 1-16.02-6.4.8.8 0 1 1 1.08-1.18 21.45 21.45 0 0 0 14.94 5.98c12.23 0 22-12.03 23.46-23.27a.8.8 0 1 1 1.58.2c-1.54 11.92-11.97 24.67-25.04 24.67z"/><path id="mflnb" d="M1091.53 660.9a.8.8 0 0 0-.8.8c0 1.22-1 2.22-2.22 2.22h-3.94a2.22 2.22 0 0 1 0-4.44h3.94a.8.8 0 1 0 0-1.6h-3.94a3.82 3.82 0 0 0-3.73 3.01c-14.68-.14-29.31-4.7-29.31-13.32 0-20.77 8.88-42.97 33.82-42.97a.8.8 0 1 0 0-1.6c-12.58 0-22.09 5.2-28.27 15.46-6.22 10.31-7.15 22.67-7.15 29.11 0 4.67 3.5 8.57 10.14 11.29 5.56 2.27 12.91 3.56 20.77 3.63a3.82 3.82 0 0 0 3.73 3.02h3.94c2.1 0 3.82-1.7 3.82-3.81a.8.8 0 0 0-.8-.8z"/><path id="mflnc" d="M1061.92 652.5a.8.8 0 0 1-.72-.45c-1.84-3.76-2.1-11.11.68-16.44 1.67-3.22 4.21-5.18 7.34-5.67 3.79-.6 5.8-3.92 7.58-6.84 1.2-1.98 2.33-3.84 3.9-4.7.57-.31 1.12-.4 1.62-.23.97.3 1.49 1.34 2.15 2.67 1.6 3.18 4 8 13.75 8.33l2.3.07c7.61.2 9.91.27 10.56 7.7a.8.8 0 1 1-1.6.14c-.51-6-1.48-6.04-9-6.24l-2.31-.07c-10.7-.37-13.58-6.13-15.13-9.22-.41-.82-.88-1.76-1.2-1.86-.07-.02-.2.02-.38.11-1.19.65-2.21 2.34-3.3 4.12-1.86 3.07-4.17 6.88-8.7 7.6-2.64.41-4.71 2.04-6.17 4.83-2.46 4.73-2.33 11.58-.66 15a.8.8 0 0 1-.71 1.15z"/></defs><g><g transform="translate(-1050 -603)"><g><g><g><use xlink:href="#mflna"/></g></g><g><use xlink:href="#mflnb"/></g><g><g><use xlink:href="#mflnc"/></g></g></g></g></g></svg>