<svg xmlns="http://www.w3.org/2000/svg" xmlns:xlink="http://www.w3.org/1999/xlink" width="77" height="58" viewBox="0 0 77 58"><defs><path id="ow62a" d="M429.1 656.57c-1.28 0-2.54.35-3.63 1.02a.85.85 0 1 0 .89 1.44 5.24 5.24 0 1 1-2.5 4.48.85.85 0 0 0-.85-.85h-7.9a2.54 2.54 0 0 1-2.55-2.54v-25.06a.85.85 0 1 0-1.69 0v25.06c0 2.34 1.9 4.24 4.23 4.24h7.12a6.95 6.95 0 1 0 6.88-7.8z"/><path id="ow62b" d="M444.53 630.54l-29.43-.07a4.25 4.25 0 0 1-4.23-4.24v-8.5c0-2.33 1.9-4.22 4.23-4.22h31.54c2.33 0 4.23 1.9 4.23 4.23v4.43a.85.85 0 1 1-1.7 0v-4.43c0-1.4-1.13-2.54-2.53-2.54H415.1a2.54 2.54 0 0 0-2.54 2.54v8.5c0 1.4 1.14 2.54 2.55 2.54l29.43.07a.85.85 0 0 1 0 1.69z"/><path id="ow62c" d="M481.85 664.33h-3.08a.85.85 0 1 1 0-1.7h3.08a2.76 2.76 0 0 0 2.76-2.76v-11.36c0-1.84-.76-4.74-1.66-6.34l-9.27-16.44a5.98 5.98 0 0 0-4.64-2.72h-7.47a2.76 2.76 0 0 0-2.76 2.77v15.51a2.76 2.76 0 0 0 2.76 2.76h14.15a.85.85 0 1 1 0 1.7h-14.15c-2.46 0-4.46-2-4.46-4.46v-15.51c0-2.46 2-4.46 4.46-4.46h7.47c2.3 0 4.99 1.57 6.12 3.58l9.26 16.44a16.98 16.98 0 0 1 1.88 7.17v11.36c0 2.46-2 4.46-4.45 4.46z"/><path id="ow62d" d="M466.96 655.86c-1.4 0-2.76.39-3.94 1.11a.85.85 0 1 0 .88 1.45 5.83 5.83 0 1 1-2.78 4.98.85.85 0 0 0-.85-.85h-18.03a.85.85 0 1 0 0 1.7h17.23a7.54 7.54 0 0 0 15.02-.85 7.54 7.54 0 0 0-7.53-7.54z"/></defs><g><g transform="translate(-410 -613)"><g><g><use xlink:href="#ow62a"/></g><g><g><use xlink:href="#ow62b"/></g></g><g><g><use xlink:href="#ow62c"/></g></g><g><use xlink:href="#ow62d"/></g></g></g></g></svg>