<svg xmlns="http://www.w3.org/2000/svg" xmlns:xlink="http://www.w3.org/1999/xlink" width="59" height="57" viewBox="0 0 59 57"><defs><path id="id7qa" d="M950.23 1095v-16.31l30.5-17.6v16.3zm28.37-11.28l-.56.33c-.18-.28-.42-.5-.7-.67-.73-.42-1.64-.38-2.57.11a6.33 6.33 0 0 0-2.95 4.14l-.43.26c-.2-.3-.44-.55-.76-.73-1.44-.84-3.54.2-4.78 2.34a6.3 6.3 0 0 0-.75 2.02l-5.85 3.37v-3.96l19.35-11.17zm-1.77 4.48a4.78 4.78 0 0 1-1.81 1.85c-.62.33-1.2.38-1.61.14-.42-.25-.67-.76-.7-1.46-.02-.79.22-1.68.7-2.5a4.78 4.78 0 0 1 1.82-1.86c.36-.19.7-.28 1-.28.23 0 .43.05.6.15.43.24.67.76.7 1.46.03.78-.22 1.67-.7 2.5zm-6.7 3.78c-.93 1.6-2.5 2.52-3.42 1.98-.93-.53-.93-2.35 0-3.96.75-1.3 1.91-2.14 2.82-2.14.22 0 .43.05.6.15.94.54.93 2.35 0 3.97zm-18.75 6.4c-.34-.2-.73-.29-1.15-.28v-1.96l8.03-4.64v3.96l-6.18 3.57a2.15 2.15 0 0 0-.7-.64zm-.5 4.83c-.93 1.6-2.5 2.52-3.43 1.98-.92-.53-.92-2.35 0-3.96a4.78 4.78 0 0 1 1.83-1.85c.35-.2.7-.29 1-.29.23 0 .43.05.6.16.93.53.93 2.34 0 3.96zm-5.01-.6l-6.76 3.85v-7.24l4.72-2.73a.5.5 0 0 0 .25-.43v-8.75l5.16-2.95v13.95a5.78 5.78 0 0 0-2.64 2.43c-.36.62-.6 1.26-.73 1.88zm-10.55 2.23v-1.07l2.8 1.68v1zm-11.33-7.88l2.8 1.68v1.28l-2.8-1.62zm16.75-7.75l2.34-1.34v7.9l-3.74 2.17zm-1.52 3.18l-.92 5.79-14.25-8.23.96-5.77zm.17-1.05l-14.21-8.2.36-2.18 14.2 8.2zm-4.32 9.03l-7.54-4.35a.5.5 0 0 0-.74.43v1.04l-2.8-1.69v-4.74l14.12 8.15v5.09l-2.8-1.69v-1.8a.5.5 0 0 0-.24-.44zm-.75 3.9l-6.54-3.78v-3.18l6.54 3.78zm.3-28.91l14.12 8.15-8.45 4.81-14.12-8.15zm.5-4.83l14.12 8.16v3.96l-14.12-8.15zm30.99-18.46l14.12 8.15-30.5 17.6-14.12-8.15zm15.36 7.72l-15.12-8.72a.5.5 0 0 0-.5 0l-31.48 18.17a.5.5 0 0 0-.24.43v4.82l-9.2 5.25a.5.5 0 0 0-.25.35L923 1090.2v8.39c0 .17.1.34.25.42l15.11 8.73a.5.5 0 0 0 .5 0l6.91-3.93c.05 1 .45 1.81 1.19 2.24.33.2.7.29 1.1.29 1.27 0 2.73-1 3.68-2.64.75-1.3 1-2.68.73-3.75l12.56-7.25c.07.94.47 1.71 1.18 2.12.34.2.71.29 1.1.29 1.28 0 2.73-1 3.68-2.64.58-1 .86-2.05.84-2.96.17.69.54 1.22 1.08 1.53.33.2.7.3 1.1.3.46 0 .96-.14 1.47-.4a5.78 5.78 0 0 0 2.21-2.24c.57-1 .87-2.07.83-3.04 0-.24-.04-.48-.09-.7l.92-.52a.5.5 0 0 0 .24-.43v-4.83l1.88-1.08a.5.5 0 0 0 .25-.43v-17.45a.5.5 0 0 0-.25-.43z"/></defs><g><g transform="translate(-923 -1051)"><use xlink:href="#id7qa"/></g></g></svg>