<?xml version="1.0" encoding="iso-8859-1"?>
<!-- Generator: Adobe Illustrator 19.0.0, SVG Export Plug-In . SVG Version: 6.00 Build 0)  -->
<svg version="1.1" id="Layer_1" xmlns="http://www.w3.org/2000/svg" xmlns:xlink="http://www.w3.org/1999/xlink" x="0px" y="0px"
	 viewBox="0 0 512 512" style="enable-background:new 0 0 512 512;" xml:space="preserve">
<g>
	<g>
		<path d="M504.396,21.498H7.604C3.405,21.498,0,24.902,0,29.102v74.516c0,1.814,0.649,3.568,1.828,4.946l199.068,232.474v66.724
			c0,4.199,3.405,7.604,7.604,7.604s7.604-3.405,7.604-7.604v-61.931h79.793V431.9l-79.793,38.84v-37.631
			c0-4.199-3.405-7.604-7.604-7.604s-7.604,3.405-7.604,7.604v49.79c0,2.621,1.35,5.057,3.572,6.447
			c1.229,0.768,2.628,1.157,4.033,1.157c1.136,0,2.274-0.253,3.328-0.766l95.001-46.243c2.616-1.273,4.275-3.928,4.275-6.837
			v-95.617l199.068-232.474c1.18-1.378,1.828-3.132,1.828-4.946V29.102C512,24.902,508.595,21.498,504.396,21.498z M496.792,96.014
			H377.299c-4.199,0-7.604,3.405-7.604,7.604s3.405,7.604,7.604,7.604h110.575L300.001,330.622h-88.001L24.126,111.221h327.827
			c4.199,0,7.604-3.405,7.604-7.604c0-4.199-3.405-7.604-7.604-7.604H15.208V36.706h481.584V96.014z"/>
	</g>
</g>
<g>
</g>
<g>
</g>
<g>
</g>
<g>
</g>
<g>
</g>
<g>
</g>
<g>
</g>
<g>
</g>
<g>
</g>
<g>
</g>
<g>
</g>
<g>
</g>
<g>
</g>
<g>
</g>
<g>
</g>
</svg>
