<svg xmlns="http://www.w3.org/2000/svg" xmlns:xlink="http://www.w3.org/1999/xlink" width="57" height="53" viewBox="0 0 57 53"><defs><path id="cyxqa" d="M1352.17 1899.29c.28.37.68.61 1.13.64.45.06.88-.12 1.21-.44l5.11-5 9.51 13.26-5.7-1.17c-.85-.17-1.7.43-1.87 1.35-.16.93.4 1.83 1.27 2l9.49 1.94c.1.02.2.04.3.04.33 0 .66-.12.94-.33.35-.28.58-.7.65-1.17l1.24-10.21c.11-.94-.5-1.8-1.38-1.92-.86-.13-1.68.54-1.8 1.47l-.7 5.78-10.47-14.62a1.6 1.6 0 0 0-1.13-.66c-.45-.04-.89.12-1.22.44l-5.12 5.02-12.25-16.78a1.53 1.53 0 0 0-2.25-.3c-.7.59-.82 1.66-.27 2.4zm26.83 22.88c0 .94-.71 1.7-1.6 1.7h-46.35c-.88 0-1.6-.76-1.6-1.7v-2.85h-5.85c-.89 0-1.6-.77-1.6-1.71 0-.95.71-1.71 1.6-1.71h5.85v-6.56h-5.85c-.89 0-1.6-.76-1.6-1.7 0-.95.71-1.72 1.6-1.72h5.85v-6.55h-5.85c-.89 0-1.6-.76-1.6-1.7 0-.95.71-1.72 1.6-1.72h5.85v-6.55h-5.85c-.89 0-1.6-.77-1.6-1.71s.71-1.71 1.6-1.71h5.85v-6.56h-5.85c-.89 0-1.6-.76-1.6-1.7 0-.95.71-1.71 1.6-1.71h5.85v-3.42c0-.95.72-1.71 1.6-1.71.89 0 1.6.76 1.6 1.7v47.88h44.75c.89 0 1.6.77 1.6 1.7z"/></defs><g><g transform="translate(-1322 -1871)"><g><use xlink:href="#cyxqa"/></g></g></g></svg>