<svg xmlns="http://www.w3.org/2000/svg" xmlns:xlink="http://www.w3.org/1999/xlink" width="68" height="72" viewBox="0 0 68 72"><defs><path id="j1ola" d="M1367.59 658.18a3.15 3.15 0 0 0 3.14 2.76c.13 0 .27 0 .4-.02l23.2-3.01a.81.81 0 0 0 .7-.92l-1.23-9.55c-.05-.39-.37-.74-.75-.7l-1.73.2 2.62-4.63 3.82 3.8-1.7.22a.82.82 0 0 0-.7.91l1.24 9.55c.06.41.4.71.81.71.24 0 7.52-.97 7.52-.97a2.22 2.22 0 0 0 1.93-2.5l-3.71-28.6a.82.82 0 0 0-1.62.21l3.71 28.6a.6.6 0 0 1-.12.44.6.6 0 0 1-.4.24l-6.6.85-1.03-7.93 2.21-.29c.4-.05.7-.29.83-.64a.97.97 0 0 0-.27-1.01l-5.3-5.27a1.06 1.06 0 0 0-.9-.31c-.32.04-.6.24-.77.54l-3.63 6.42c-.2.35-.2.74.01 1.04.18.27.48.42.81.42l.15-.01 2.06-.27 1.03 7.93-22.4 2.9a1.53 1.53 0 0 1-1.72-1.33l-3.48-26.83a1.53 1.53 0 0 1 1.33-1.72l28.42-3.7a.81.81 0 1 0-.2-1.61l-28.43 3.68a3.17 3.17 0 0 0-2.74 3.56z"/><path id="j1olb" d="M1407.85 661.25a.81.81 0 0 0-.92-.7l-39 5.24a.82.82 0 0 0-.7.91c.4 3.03-1.54 5.8-4.34 6.17a5.13 5.13 0 1 1 1.13-9.86c.12.05.34.08.49.06a.81.81 0 0 0 .7-.92l-6.7-49.84a10.76 10.76 0 0 0-17.44-6.9.82.82 0 0 0 1.03 1.27 9.1 9.1 0 0 1 14.8 5.85l6.53 48.59a6.55 6.55 0 0 0-2.12-.02 6.76 6.76 0 0 0 1.8 13.39c3.43-.46 5.9-3.6 5.8-7.19l38.24-5.14a.82.82 0 0 0 .7-.91z"/></defs><g><g transform="translate(-1340 -603)"><g><g><use xlink:href="#j1ola"/></g><g><use xlink:href="#j1olb"/></g></g></g></g></svg>