<svg xmlns="http://www.w3.org/2000/svg" xmlns:xlink="http://www.w3.org/1999/xlink" width="48" height="49" viewBox="0 0 48 49"><defs><path id="47kqa" d="M942.23 818.58c0 .12-.1.22-.21.22h-5.43l5.64-5.64zm27.05-2.03c.64 0 1.16-.52 1.16-1.16v-3.66c0-1.4-1.14-2.53-2.54-2.53h-24.5c-.31 0-.6.12-.83.34l-9.6 9.6c-.21.21-.33.5-.33.82v34.7c0 1.4 1.13 2.54 2.53 2.54h32.73c1.4 0 2.53-1.14 2.53-2.53v-17.7a1.16 1.16 0 1 0-2.31 0v17.7c0 .12-.1.21-.22.21h-32.73a.22.22 0 0 1-.22-.21V821.1h7.07c1.4 0 2.53-1.13 2.53-2.53v-7.06h23.35c.12 0 .22.1.22.21v3.66c0 .64.52 1.16 1.16 1.16z"/><path id="47kqb" d="M976.56 822.52l-1.46 1.46-3.63-3.63 1.46-1.46a1.6 1.6 0 0 1 2.26 0l1.37 1.36a1.6 1.6 0 0 1 0 2.27zm-21.63 21.63l-3.63-3.63 18.53-18.53 3.63 3.63zm-5.63 2l.94-3.41 2.46 2.46zm28.9-27.54l-1.37-1.36a3.93 3.93 0 0 0-5.54 0l-10.82 10.82H941.7a1.16 1.16 0 0 0 0 2.32h16.45l-6.97 6.97h-9.48a1.16 1.16 0 0 0 0 2.32h7.16l-.02.02c-.14.14-.24.31-.3.5l-1.79 6.45h-5.05a1.16 1.16 0 0 0 0 2.32h5.93l.3-.04 7.3-2.03c.2-.05.38-.16.52-.3l8.23-8.23 14.21-14.21a3.92 3.92 0 0 0 0-5.55z"/></defs><g><g transform="translate(-932 -809)"><g><g><g><use xlink:href="#47kqa"/></g></g></g><g><g><g><use xlink:href="#47kqb"/></g></g></g></g></g></svg>