<svg xmlns="http://www.w3.org/2000/svg" xmlns:xlink="http://www.w3.org/1999/xlink" width="47" height="50" viewBox="0 0 47 50"><defs><path id="da0qa" d="M601.19 830.07v1.86H577.1v-1.86zm0-5.55v1.85H577.1v-1.85zm0-5.56v1.85H577.1v-1.85zm-32.76 34.68l14.24-12.42-14.82-13v24.08c0 .52.23 1 .58 1.34zm41.43 0c.36-.34.58-.82.58-1.34v-24.08l-14.81 13 14.23 12.42zm-26.27-10.6l-12.96 11.1h37.04l-12.97-11.1zm-12.03-19.12l-2.78 2.45 2.78 2.47zm35.18 4.92l2.78-2.47-2.78-2.45zm-14.02-17.28l-3.57-3.15-3.57 3.15zm-9.88 0l6.3-5.56.18.15 6.14 5.4h7.58a3.7 3.7 0 0 1 3.7 3.7v6.23l5.56 4.89v25.94a3.7 3.7 0 0 1-3.71 3.69H569.7a3.7 3.7 0 0 1-3.71-3.7v-25.93l5.56-4.89v-6.22a3.7 3.7 0 0 1 3.7-3.7zm16.04 24.07l6-5.37v-14.98c0-1.04-.83-1.87-1.84-1.87h-27.78c-1.02 0-1.85.82-1.85 1.85v15.18l5.87 5.19zm-2.07 1.85zm0 0h-15.43l4.16 3.67 4.2.02-3.14.02h6.25l.04-.04h-.19z"/></defs><g><g transform="translate(-566 -806)"><g><g><use xlink:href="#da0qa"/></g></g></g></g></svg>