<svg xmlns="http://www.w3.org/2000/svg" xmlns:xlink="http://www.w3.org/1999/xlink" width="62" height="56" viewBox="0 0 62 56"><defs><path id="u33ba" d="M1354.4 1097.86c.85 0 1.19.48 1.32.84h-2.65c.13-.36.47-.84 1.32-.84zm-3.5 2.07h6.98v3.34h-6.98zm8.21 3.95v-4.56a.61.61 0 0 0-.61-.62h-1.5a2.5 2.5 0 0 0-2.6-2.07 2.5 2.5 0 0 0-2.6 2.07h-1.51a.61.61 0 0 0-.61.62v4.56c0 .34.27.62.61.62h8.2c.35 0 .62-.28.62-.62zm-17.5-51.65a1.49 1.49 0 0 1 .1 0c.06 0 5.06-.14 7.95 3.85 1.71 2.34 1.86 5.54 1.69 7.8l-1.24-4.38a.61.61 0 0 0-.82-.4c-.02 0-2.6 1.02-7.6 1.02s-7.57-1.02-7.59-1.03a.61.61 0 0 0-.82.4l-1.24 4.4c-.17-2.26-.02-5.46 1.69-7.81 2.7-3.73 7.28-3.85 7.88-3.85zm-6.15 25.65a14.26 14.26 0 0 1-1.47-3.7.61.61 0 0 0-.34-.42l-.82-.37c-1.1-.5-1.97-2.63-1.85-4.55.08-1.36.73-1.44.85-1.44a.6.6 0 0 0 .33-.07l.02-.02c.13-.08.23-.2.27-.36l1.83-6.5c1.1.33 3.56.9 7.42.9 3.85 0 6.31-.57 7.4-.9l1.84 6.5c.08.28.33.46.62.45.06 0 .76.03.85 1.44.12 1.92-.74 4.05-1.85 4.55l-.81.37a.61.61 0 0 0-.35.47c-.06.4-.37 2.41-1.47 4.32-.16.24-2.58 3.7-6.23 3.7-3.73 0-6.22-4.32-6.24-4.37zm2.36 4.33a6.9 6.9 0 0 0 7.36.39l-1.7 1.74h-3.57zm7.64 4.68a.72.72 0 0 0-.03-.05l-.96-1.76 4.54-4.63 2.02 3.05-4 5.82-1.57-2.43zm-11.08-6.44l.08.08.06.08 4.4 4.48-.96 1.75a.6.6 0 0 0-.03.05l-1.57 2.43-4-5.82zm1.49 10.32c.11.17.32.26.51.27.2 0 .4-.11.5-.28l1.44-2.2.72 2.2-1.1 8.12-4.07-11.01zm9.2-2.22l1.43 2.2c.11.18.3.28.5.29.2 0 .4-.1.52-.27l2-2.91-4.06 11.02-1.11-8.12zm-23.75 6.93a.61.61 0 0 0-1.23 0v10.28h-7.67l4.11-14.6a5.63 5.63 0 0 1 3.89-3.89l10.8-3.02 6.42 17.36 1.52 4.15h-17.84zm17.52 5.85l1.44-10.54c0-.1 0-.19-.03-.27l-1.08-3.31.87-1.61h3.3l.88 1.6-1.08 3.32a.61.61 0 0 0-.03.27l1.45 10.53-1.65 4.44h-2.44zm24.46 4.43v-10.28a.61.61 0 0 0-1.23 0v10.28h-17.85l1.54-4.15 6.4-17.36 10.81 3.02c1.87.53 3.36 2.01 3.89 3.88l4.1 14.61h-7.66zm-19.96 1.23h28.44a.61.61 0 0 0 .59-.78l-4.33-15.39a6.87 6.87 0 0 0-4.74-4.73l-11.14-3.11-2.55-3.84a.61.61 0 0 0-.45-.27c.9-1.67 1.27-3.37 1.4-4.13l.5-.23c1.79-.81 2.71-3.56 2.58-5.74-.1-1.47-.76-2.17-1.38-2.44.36-1.82 1.13-7.22-1.6-10.97-3.21-4.42-8.52-4.37-8.96-4.36-.45 0-5.76-.05-8.97 4.36-2.73 3.75-1.96 9.15-1.6 10.97-.62.27-1.28.97-1.38 2.44-.13 2.18.8 4.93 2.58 5.74l.54.24c.18.7.6 2.1 1.44 3.6l.01.52h-.09a.61.61 0 0 0-.45.27l-2.55 3.84-11.14 3.11a6.87 6.87 0 0 0-4.74 4.73l-4.33 15.39a.61.61 0 0 0 .6.78H1343.33z"/></defs><g><g transform="translate(-1311 -1051)"><use xlink:href="#u33ba"/></g></g></svg>