<svg xmlns="http://www.w3.org/2000/svg" xmlns:xlink="http://www.w3.org/1999/xlink" width="56" height="56" viewBox="0 0 56 56"><defs><path id="gbtya" d="M597.4 1097.4a25.99 25.99 0 0 1-18.5 7.67 25.99 25.99 0 0 1-18.5-7.66 25.99 25.99 0 0 1-7.66-18.5c0-7 2.73-13.56 7.67-18.5a25.99 25.99 0 0 1 18.5-7.67c6.99 0 13.56 2.73 18.5 7.67a25.99 25.99 0 0 1 7.66 18.5c0 6.99-2.72 13.56-7.66 18.5zm1.24-38.22a27.72 27.72 0 0 0-19.73-8.18c-7.46 0-14.46 2.9-19.73 8.18a27.72 27.72 0 0 0-8.18 19.73c0 7.45 2.9 14.46 8.18 19.73a27.72 27.72 0 0 0 19.73 8.18c7.45 0 14.46-2.9 19.73-8.18a27.72 27.72 0 0 0 8.18-19.73c0-7.46-2.9-14.46-8.18-19.73z"/><path id="gbtyb" d="M584.83 1078.7c-2.5 2.3-6.67 1.96-6.8 1.95h-5.23v-13.95h5.31c.05-.01 4.2-.36 6.72 1.94 1.28 1.17 1.93 2.87 1.93 5.03 0 2.17-.65 3.86-1.93 5.03zm-6.8-13.75H571.07v15.7h-3.49v1.75h3.49v3.48h-3.49v1.75h3.49v5.23h1.74v-5.23h6.1v-1.75h-6.1v-3.49h5.16c.04 0 .34.03.8.03 1.53 0 4.88-.27 7.24-2.43 1.66-1.51 2.5-3.64 2.5-6.32 0-2.67-.84-4.8-2.5-6.31-3.08-2.82-7.84-2.42-7.96-2.4z"/></defs><g><g opacity=".9" transform="translate(-551 -1051)"><g opacity=".9"><use xlink:href="#gbtya"/></g><g opacity=".9"><use xlink:href="#gbtyb"/></g></g></g></svg>