<svg xmlns="http://www.w3.org/2000/svg" xmlns:xlink="http://www.w3.org/1999/xlink" width="18" height="11" viewBox="0 0 18 11"><defs><path id="29gka" d="M1043.13 1967.2c-.53-.65-1.16-1.2-1.75-1.77-.54-.52-.57-.82-.14-1.43.47-.65.97-1.28 1.45-1.94.44-.6.89-1.22 1.12-1.95.15-.46.02-.67-.46-.75a1.47 1.47 0 0 0-.25-.02h-2.83c-.35 0-.54.15-.67.46-.16.41-.33.83-.53 1.23-.45.92-.96 1.8-1.66 2.55-.16.17-.33.37-.59.29-.32-.12-.42-.66-.41-.84v-3.26c-.07-.47-.17-.68-.63-.77h-2.95c-.39 0-.58.15-.8.4-.12.14-.15.23.1.28.48.1.76.4.83.9.12.78.11 1.56.04 2.35-.02.23-.06.46-.15.67-.14.34-.37.4-.67.2a2.73 2.73 0 0 1-.65-.72c-.7-1-1.27-2.07-1.73-3.2-.13-.33-.36-.52-.7-.53h-2.55c-.52.01-.67.26-.46.72a31.63 31.63 0 0 0 3.3 5.88 8.21 8.21 0 0 0 2.5 2.35c1.17.66 2.41.86 3.73.8.62-.03.8-.19.83-.8.02-.42.07-.84.27-1.22.2-.37.51-.44.87-.2.18.1.33.26.47.41.34.38.68.77 1.04 1.14.45.46.98.73 1.66.67h2.6c.42-.03.64-.54.4-1-.17-.33-.4-.63-.63-.9z"/></defs><g><g transform="translate(-1026 -1959)"><use xlink:href="#29gka"/></g></g></svg>