<svg xmlns="http://www.w3.org/2000/svg" xmlns:xlink="http://www.w3.org/1999/xlink" width="16" height="16" viewBox="0 0 16 16"><defs><path id="gh6ka" d="M891 1969.53c0 .24-.25.47-.5.47h-11.23c-.24 0-.59-.23-.59-.47v-6.8h1.62c-.11.55-.17.81-.17 1.25a4.76 4.76 0 0 0 9.52 0c0-.44-.06-.7-.17-1.26H891zm-6.11-8.56a3 3 0 1 1 0 6.02 3 3 0 0 1 0-6.02zm5.58-2.73c.3 0 .53.24.53.54v1.72c0 .3-.24.54-.53.54h-1.73a.54.54 0 0 1-.54-.54v-1.72c0-.3.24-.54.54-.54zm.36-2.24h-11.92c-1.03 0-1.91.97-1.91 1.99v11.94c0 1.02.88 1.75 1.9 1.75h11.93c1.03 0 1.85-.73 1.85-1.75v-11.94c0-1.02-.82-1.99-1.85-1.99z"/></defs><g><g transform="translate(-877 -1956)"><use xlink:href="#gh6ka"/></g></g></svg>