<svg xmlns="http://www.w3.org/2000/svg" xmlns:xlink="http://www.w3.org/1999/xlink" width="18" height="15" viewBox="0 0 18 15"><defs><path id="6ehsa" d="M981.54 1964.85l7.72-4.76c.14-.08.28.1.16.22l-6.37 5.92c-.23.2-.37.49-.41.79l-.22 1.6c-.03.22-.33.25-.39.04l-.83-2.94c-.1-.33.04-.69.34-.87zm-5.24-.7l3.95 1.48 1.53 4.92c.1.32.49.43.74.22l2.2-1.8c.24-.18.56-.19.8-.01l3.98 2.88c.27.2.66.05.73-.28l2.9-14a.47.47 0 0 0-.62-.53l-16.21 6.26c-.4.15-.4.72 0 .87z"/></defs><g><g transform="translate(-976 -1957)"><use xlink:href="#6ehsa"/></g></g></svg>