<svg xmlns="http://www.w3.org/2000/svg" xmlns:xlink="http://www.w3.org/1999/xlink" width="17" height="19" viewBox="0 0 17 19"><defs><path id="wovpa" d="M941.11 1966.99a.42.42 0 0 0-.16-.34.6.6 0 0 0-.38-.13h-.05a.53.53 0 0 0-.36.14c-.1.09-.15.2-.15.33l-.02.6h1.1zm.86 2.07c.03.14.04.27.05.39 0 .36-.1.66-.33.88-.3.31-.65.48-1.04.5h-.1c-.35 0-.68-.13-1-.39-.34-.27-.51-.73-.51-1.38v-1.53c0-.46.05-.82.15-1.08.1-.26.26-.46.48-.61.18-.13.39-.2.62-.24.24-.03.47-.02.7.03.23.05.43.14.6.28.17.13.27.32.3.54.04.13.06.32.07.56l.01.74v.68h-1.98v1.19c0 .13.04.24.13.31.09.08.2.11.33.11h.18c.13 0 .24-.03.34-.11.1-.07.14-.18.14-.31v-.56h.86zm-4.47-8.31c.09.15.18.26.3.34.12.08.28.12.47.12.16 0 .3-.04.43-.12.11-.1.22-.22.34-.39l-.02.41h1.27v-5.09h-1v3.97c0 .1-.04.19-.13.26a.43.43 0 0 1-.3.11.41.41 0 0 1-.3-.1.36.36 0 0 1-.1-.27v-3.97h-1.08v3.98a1.9 1.9 0 0 0 .06.54l.06.21zm-.89 5.68c-.1.08-.15.17-.15.27v2.9c0 .1.05.18.15.26.1.07.22.1.36.1a.6.6 0 0 0 .35-.1c.1-.08.16-.17.16-.27v-2.9c0-.09-.05-.18-.16-.26a.57.57 0 0 0-.35-.12.58.58 0 0 0-.36.12zm1.74 2.95c0 .3-.05.58-.14.82a1 1 0 0 1-.4.51.8.8 0 0 1-.62.07 2.14 2.14 0 0 1-.83-.47l-.08.4-.95.03v-6.6h1.15v1.92c.36-.25.67-.38.95-.38a.8.8 0 0 1 .4.1c.35.2.52.55.52 1.04v2.56zm-3.73-12.19c0-.15.06-.27.16-.38.1-.1.22-.15.35-.15a.5.5 0 0 1 .36.15c.1.1.15.23.15.38v2.71c0 .14-.05.26-.15.36a.5.5 0 0 1-.72 0 .5.5 0 0 1-.15-.36zm-1.02 2.02c0 .46.03.8.07 1.03.07.24.16.42.26.56.1.17.25.3.46.36.22.08.47.13.74.13s.5-.05.72-.15c.17-.07.33-.2.48-.41.15-.24.23-.45.25-.64.05-.21.08-.55.08-1.03v-1.3c0-.35-.03-.63-.08-.84-.05-.2-.12-.36-.22-.51-.14-.21-.3-.36-.51-.44-.21-.1-.47-.15-.78-.15-.35 0-.63.08-.86.25-.22.13-.38.35-.49.66-.08.3-.12.68-.12 1.14zm1.05 11.58l-.95-.02.02-.61c-.06.11-.17.22-.31.33a1.87 1.87 0 0 1-1 .33.86.86 0 0 1-.47-.13.48.48 0 0 1-.24-.37l-.04-.43c-.02-.08-.03-.2-.02-.37l.02-.6-.03-3.06h1.15l.02 3.11-.01.5c-.01.13 0 .22.01.25.09.24.2.33.37.27.16-.07.26-.16.3-.3.03-.03.05-.1.04-.23V1965.86h1.14zm-3.6-9.53h1.21v-3.9l1.44-3.36h-1.33l-.76 2.5-.77-2.5h-1.33l1.53 3.35zm-1.71 9.53v-5.8h-1.2v-.85h3.71v.88h-1.37v5.77zm14.33-6.09c0-.32-.07-.63-.22-.92-.15-.3-.34-.55-.6-.77a3.01 3.01 0 0 0-1.93-.7h-11.19a2.88 2.88 0 0 0-2.51 1.47c-.15.29-.22.6-.22.92v5.48c0 .34.07.65.22.94.14.29.34.54.6.76a2.83 2.83 0 0 0 1.91.7h11.2a3 3 0 0 0 1.93-.7c.25-.22.44-.47.59-.76.14-.29.22-.6.22-.94v-5.48z"/></defs><g><g transform="translate(-927 -1954)"><use xlink:href="#wovpa"/></g></g></svg>