<svg xmlns="http://www.w3.org/2000/svg" xmlns:xlink="http://www.w3.org/1999/xlink" width="55" height="55" viewBox="0 0 55 55"><defs><path id="ao51a" d="M545.94 1899.23a24.52 24.52 0 0 1 24.56-24.43 24.6 24.6 0 0 1 17.83 7.63h-1.25c-.81 0-1.47.66-1.47 1.46 0 .81.66 1.46 1.47 1.46h4.98c.81 0 1.47-.65 1.47-1.46v-4.95c0-.81-.66-1.46-1.47-1.46-.8 0-1.47.65-1.47 1.46v1.62a27.54 27.54 0 0 0-20.09-8.68 27.46 27.46 0 0 0-27.5 27.35c0 6.65 2.43 13.06 6.84 18.05a1.47 1.47 0 0 0 2.2-1.93 24.32 24.32 0 0 1-6.1-16.12z"/><path id="ao51b" d="M596.25 1889.6a1.47 1.47 0 0 0-2.75 1.03 24.22 24.22 0 0 1 1.56 8.6 24.52 24.52 0 0 1-24.56 24.42c-3.92 0-7.81-.94-11.27-2.72l1.33-.46a1.46 1.46 0 1 0-.98-2.76l-4.7 1.66a1.46 1.46 0 0 0-.89 1.86l1.66 4.67a1.47 1.47 0 0 0 2.77-.97l-.49-1.37a27.7 27.7 0 0 0 12.57 3.01 27.46 27.46 0 0 0 27.5-27.34c0-3.32-.59-6.56-1.75-9.63z"/><path id="ao51c" d="M584.4 1900.49h1.19a15.14 15.14 0 0 1-13.62 13.54v-1.19c0-.8-.66-1.46-1.47-1.46-.81 0-1.47.66-1.47 1.46v1.2a15.14 15.14 0 0 1-13.62-13.55h1.2c.8 0 1.47-.66 1.47-1.46 0-.81-.66-1.46-1.47-1.46h-1.2a15.14 15.14 0 0 1 13.62-13.55v1.19c0 .8.66 1.46 1.47 1.46.81 0 1.47-.65 1.47-1.46v-1.19c7.19.7 12.92 6.4 13.62 13.55h-1.2c-.8 0-1.47.65-1.47 1.46 0 .8.66 1.46 1.47 1.46zm-13.9-19.46c-9.98 0-18.1 8.07-18.1 18 0 9.92 8.12 18 18.1 18 9.98 0 18.1-8.08 18.1-18 0-9.93-8.12-18-18.1-18z"/><path id="ao51d" d="M577.1 1899.03H571.98v-7.92c0-.8-.66-1.46-1.47-1.46-.81 0-1.47.66-1.47 1.46v9.39c0 .8.66 1.46 1.47 1.46h6.6c.82 0 1.48-.66 1.48-1.46 0-.81-.66-1.47-1.47-1.47z"/></defs><g><g transform="translate(-543 -1872)"><g><g><g><use xlink:href="#ao51a"/></g><g><use xlink:href="#ao51b"/></g><g><use xlink:href="#ao51c"/></g><g><use xlink:href="#ao51d"/></g></g></g></g></g></svg>