<svg xmlns="http://www.w3.org/2000/svg" xmlns:xlink="http://www.w3.org/1999/xlink" width="53" height="52" viewBox="0 0 53 52"><defs><path id="b012a" d="M1342.11 844.47h-48.53V817.6a2.6 2.6 0 0 1 2.6-2.6h10.18a13 13 0 1 0 22.98 0h10.17a2.6 2.6 0 0 1 2.6 2.6zm0 4.33a2.6 2.6 0 0 1-2.6 2.6h-43.33a2.6 2.6 0 0 1-2.6-2.6v-2.6h48.53v2.6zm-30.33 6.07v-1.73h12.13v1.73zm17.33 1.73c.96 0 1.74.78 1.74 1.74h-26c0-.96.77-1.73 1.73-1.74zm-11.26-46.8a11.27 11.27 0 1 1 0 22.54 11.27 11.27 0 0 1 0-22.54zm21.66 3.47h-11.29a12.95 12.95 0 0 0-20.75 0h-11.29a4.34 4.34 0 0 0-4.33 4.33v31.2c0 2.4 1.94 4.33 4.33 4.34h13.87v1.73h-3.47a3.47 3.47 0 0 0-3.47 3.47v.86a.87.87 0 0 0 .87.87h27.73a.87.87 0 0 0 .87-.87v-.86a3.47 3.47 0 0 0-3.47-3.47h-3.46v-1.73h13.86c2.4 0 4.33-1.94 4.34-4.34v-31.2c0-2.39-1.94-4.33-4.34-4.33z"/><path id="b012b" d="M1337.78 840.14c0 .48-.39.86-.87.86h-16.46v-3.46h16.46c.48 0 .87.39.87.86v1.74zm-19.07.86h-2.24l2.24-2.24zm-6.57 0l3.47-3.46h1.88l-3.47 3.46zm-4.33 0l3.46-3.46h1.89l-3.47 3.46zm-4.34 0l3.47-3.46h1.88l-3.46 3.46zm-4.33 0l3.47-3.46h1.88l-3.47 3.46zm-1.23-1.22v-1.38c0-.47.4-.86.87-.86h1.38zm39-3.98h-38.13a2.6 2.6 0 0 0-2.6 2.6v1.74a2.6 2.6 0 0 0 2.6 2.6h38.13a2.6 2.6 0 0 0 2.6-2.6v-1.74a2.6 2.6 0 0 0-2.6-2.6z"/><path id="b012c" d="M1317.85 813.27a7.8 7.8 0 1 1 0 15.6 7.8 7.8 0 0 1 0-15.6zm0 17.33a9.53 9.53 0 1 0 0-19.06 9.53 9.53 0 0 0 0 19.06z"/><path id="b012d" d="M1320.7 826.02a.87.87 0 1 0 1.23-1.23l-3.22-3.21v-5.7a.87.87 0 1 0-1.73 0v6.06c0 .23.1.45.25.61z"/></defs><g><g transform="translate(-1291 -808)"><g><g><g><use xlink:href="#b012a"/></g><g><use xlink:href="#b012b"/></g><g><use xlink:href="#b012c"/></g><g><use xlink:href="#b012d"/></g></g></g></g></g></svg>