<?xml version="1.0" encoding="iso-8859-1"?><!DOCTYPE svg PUBLIC "-//W3C//DTD SVG 1.1//EN" "http://www.w3.org/Graphics/SVG/1.1/DTD/svg11.dtd"><svg xmlns="http://www.w3.org/2000/svg" xmlns:xlink="http://www.w3.org/1999/xlink"><symbol viewBox="0 0 512 512" id="cart" xmlns="http://www.w3.org/2000/svg"><path d="M509.867 89.6c-2.133-2.133-4.267-4.267-8.533-4.267H96L85.333 29.867c0-4.267-6.4-8.533-10.667-8.533h-64C4.267 21.333 0 25.6 0 32s4.267 10.667 10.667 10.667h55.467l51.2 260.267c6.4 34.133 38.4 59.733 72.533 59.733H435.2c6.4 0 10.667-4.267 10.667-10.667 0-6.4-4.267-10.667-10.667-10.667H192c-17.067 0-34.133-8.533-42.667-23.467L460.8 275.2c4.267 0 8.533-4.267 8.533-8.533L512 96s0-4.267-2.133-6.4zM450.133 256l-311.467 40.533-38.4-192H486.4L450.133 256zM181.333 384C151.467 384 128 407.467 128 437.333c0 29.867 23.467 53.333 53.333 53.333 29.867 0 53.333-23.467 53.333-53.333C234.667 407.467 211.2 384 181.333 384zm0 85.333c-17.067 0-32-14.934-32-32s14.933-32 32-32 32 14.934 32 32-14.933 32-32 32zM394.667 384c-29.867 0-53.333 23.467-53.333 53.333 0 29.867 23.467 53.333 53.333 53.333 29.867 0 53.333-23.467 53.333-53.333S424.533 384 394.667 384zm0 85.333c-17.067 0-32-14.934-32-32s14.933-32 32-32 32 14.934 32 32-14.934 32-32 32z"/></symbol><symbol viewBox="0 0 512 512" id="close" xmlns="http://www.w3.org/2000/svg"><path d="M505.943 6.058c-8.077-8.077-21.172-8.077-29.249 0L6.058 476.693c-8.077 8.077-8.077 21.172 0 29.249A20.612 20.612 0 0 0 20.683 512a20.614 20.614 0 0 0 14.625-6.059L505.943 35.306c8.076-8.076 8.076-21.171 0-29.248z"/><path d="M505.942 476.694L35.306 6.059c-8.076-8.077-21.172-8.077-29.248 0-8.077 8.076-8.077 21.171 0 29.248l470.636 470.636a20.616 20.616 0 0 0 14.625 6.058 20.615 20.615 0 0 0 14.624-6.057c8.075-8.078 8.075-21.173-.001-29.25z"/></symbol><symbol viewBox="0 0 47.971 47.971" id="close--bold" xmlns="http://www.w3.org/2000/svg"><path d="M28.228 23.986L47.092 5.122a2.998 2.998 0 0 0 0-4.242 2.998 2.998 0 0 0-4.242 0L23.986 19.744 5.121.88a2.998 2.998 0 0 0-4.242 0 2.998 2.998 0 0 0 0 4.242l18.865 18.864L.879 42.85a2.998 2.998 0 1 0 4.242 4.241l18.865-18.864L42.85 47.091c.586.586 1.354.879 2.121.879s1.535-.293 2.121-.879a2.998 2.998 0 0 0 0-4.242L28.228 23.986z"/></symbol><symbol viewBox="0 0 512 512" id="filter" xmlns="http://www.w3.org/2000/svg"><path d="M504.396 21.498H7.604A7.604 7.604 0 0 0 0 29.102v74.516c0 1.814.649 3.568 1.828 4.946l199.068 232.474v66.724a7.605 7.605 0 0 0 15.208 0v-61.931h79.793V431.9l-79.793 38.84v-37.631a7.605 7.605 0 0 0-15.208 0v49.79a7.605 7.605 0 0 0 10.933 6.838l95.001-46.243a7.603 7.603 0 0 0 4.275-6.837V341.04l199.068-232.474a7.603 7.603 0 0 0 1.828-4.946V29.102a7.606 7.606 0 0 0-7.605-7.604zm-7.604 74.516H377.299a7.605 7.605 0 0 0 0 15.208h110.575l-187.873 219.4H212L24.126 111.221h327.827a7.605 7.605 0 0 0 0-15.208H15.208V36.706h481.584v59.308z"/></symbol><symbol viewBox="0 0 971.986 971.986" id="filter-btn" xmlns="http://www.w3.org/2000/svg"><path d="M370.216 459.3c10.2 11.1 15.8 25.6 15.8 40.6v442c0 26.601 32.1 40.101 51.1 21.4l123.3-141.3c16.5-19.8 25.6-29.601 25.6-49.2V500c0-15 5.7-29.5 15.8-40.601L955.615 75.5c26.5-28.8 6.101-75.5-33.1-75.5h-873c-39.2 0-59.7 46.6-33.1 75.5l353.801 383.8z"/></symbol><symbol viewBox="0 0 612 612" id="list" xmlns="http://www.w3.org/2000/svg"><path d="M43.714 437.143C19.562 437.143 0 456.705 0 480.857s19.562 43.714 43.714 43.714c24.13 0 43.714-19.562 43.714-43.714.001-24.13-19.562-43.714-43.714-43.714zm153-284.143h393.428c12.065 0 21.857-9.792 21.857-21.857s-9.792-21.857-21.857-21.857H196.714c-12.065 0-21.857 9.792-21.857 21.857S184.649 153 196.714 153zm-153 109.286C19.562 262.286 0 281.87 0 306c0 24.152 19.562 43.714 43.714 43.714 24.13 0 43.714-19.584 43.714-43.714.001-24.13-19.562-43.714-43.714-43.714zm546.429 21.857H196.714c-12.065 0-21.857 9.792-21.857 21.857s9.792 21.857 21.857 21.857h393.428c12.065 0 21.857-9.792 21.857-21.857.001-12.065-9.791-21.857-21.856-21.857zm0 174.857H196.714c-12.065 0-21.857 9.792-21.857 21.857 0 12.064 9.792 21.856 21.857 21.856h393.428c12.065 0 21.857-9.792 21.857-21.856C612 468.792 602.208 459 590.143 459zM43.714 87.429C19.562 87.429 0 107.013 0 131.143s19.562 43.714 43.714 43.714c24.13 0 43.714-19.584 43.714-43.714S67.866 87.429 43.714 87.429z"/></symbol><symbol viewBox="0 0 512 512" id="location" xmlns="http://www.w3.org/2000/svg"><path d="M256 0C156.748 0 76 80.748 76 180c0 33.534 9.289 66.26 26.869 94.652l142.885 230.257A15 15 0 0 0 258.499 512h.119a14.997 14.997 0 0 0 12.75-7.292L410.611 272.22C427.221 244.428 436 212.539 436 180 436 80.748 355.252 0 256 0zm128.866 256.818L258.272 468.186l-129.905-209.34C113.734 235.214 105.8 207.95 105.8 180c0-82.71 67.49-150.2 150.2-150.2S406.1 97.29 406.1 180c0 27.121-7.411 53.688-21.234 76.818z"/><path d="M256 90c-49.626 0-90 40.374-90 90 0 49.309 39.717 90 90 90 50.903 0 90-41.233 90-90 0-49.626-40.374-90-90-90zm0 150.2c-33.257 0-60.2-27.033-60.2-60.2 0-33.084 27.116-60.2 60.2-60.2s60.1 27.116 60.1 60.2c0 32.683-26.316 60.2-60.1 60.2z"/></symbol><symbol viewBox="0 0 31.444 31.444" id="plus" xmlns="http://www.w3.org/2000/svg"><path d="M1.119 16.841a1.118 1.118 0 0 1-1.111-1.127c0-.619.492-1.111 1.111-1.111h13.475V1.127A1.133 1.133 0 0 1 15.722 0c.619 0 1.111.508 1.111 1.127v13.476h13.475c.619 0 1.127.492 1.127 1.111s-.508 1.127-1.127 1.127H16.833v13.476c0 .619-.492 1.127-1.111 1.127a1.131 1.131 0 0 1-1.127-1.127V16.841H1.119z"/></symbol><symbol viewBox="0 0 286.376 286.376" id="plus--bold" xmlns="http://www.w3.org/2000/svg"><path d="M268.477 125.29H161.086V17.899c0-9.885-8.013-17.898-17.898-17.898S125.29 8.014 125.29 17.899v107.39H17.9c-9.885 0-17.9 8.013-17.9 17.898s8.015 17.898 17.9 17.898h107.39v107.39c0 9.885 8.013 17.898 17.898 17.898s17.898-8.013 17.898-17.898v-107.39h107.391c9.885 0 17.898-8.014 17.898-17.898.001-9.884-8.013-17.897-17.898-17.897z" fill-rule="evenodd" clip-rule="evenodd"/></symbol><symbol viewBox="0 0 2133.335 405.785" id="rating" xmlns="http://www.w3.org/2000/svg"><path fill="#fac917" d="M320 258.969l25.173 146.816-131.84-69.316-131.848 69.316 25.182-146.816L0 154.995l147.409-21.419L213.333 0l65.916 133.576 147.418 21.419z"/><path fill="#fac917" d="M426.667 154.995l147.409-21.419L640 0l65.916 133.576 147.418 21.419-106.667 103.974 25.173 146.816L640 336.469l-131.848 69.316 25.182-146.816zM853.334 154.995l147.409-21.419L1066.667 0l65.916 133.576 147.418 21.419-106.667 103.974 25.173 146.816-131.84-69.316-131.848 69.316 25.182-146.816zM1600.001 258.969l25.173 146.816-131.84-69.316-131.848 69.316 25.182-146.816-106.667-103.974 147.409-21.419L1493.334 0l65.916 133.576 147.418 21.419z"/><path fill="#fac917" d="M1706.668 154.995l147.409-21.419L1920.001 0l65.916 133.576 147.418 21.419-106.667 103.974 25.173 146.816-131.84-69.316-131.848 69.316 25.182-146.816z"/></symbol><symbol viewBox="0 0 2133.335 405.785" id="rating--gray" xmlns="http://www.w3.org/2000/svg"><path fill-opacity=".118" d="M320 258.969l25.173 146.816-131.84-69.316-131.848 69.316 25.182-146.816L0 154.995l147.409-21.419L213.333 0l65.916 133.576 147.418 21.419z"/><path fill-opacity=".118" d="M426.667 154.995l147.409-21.419L640 0l65.916 133.576 147.418 21.419-106.667 103.974 25.173 146.816L640 336.469l-131.848 69.316 25.182-146.816zM853.334 154.995l147.409-21.419L1066.667 0l65.916 133.576 147.418 21.419-106.667 103.974 25.173 146.816-131.84-69.316-131.848 69.316 25.182-146.816zM1600.001 258.969l25.173 146.816-131.84-69.316-131.848 69.316 25.182-146.816-106.667-103.974 147.409-21.419L1493.334 0l65.916 133.576 147.418 21.419z"/><path fill-opacity=".118" d="M1706.668 154.995l147.409-21.419L1920.001 0l65.916 133.576 147.418 21.419-106.667 103.974 25.173 146.816-131.84-69.316-131.848 69.316 25.182-146.816z"/></symbol><symbol viewBox="0 0 483.083 483.083" id="search" xmlns="http://www.w3.org/2000/svg"><path d="M332.74 315.35c30.883-33.433 50.15-78.2 50.15-127.5C382.89 84.433 298.74 0 195.04 0S7.19 84.433 7.19 187.85 91.34 375.7 195.04 375.7c42.217 0 81.033-13.883 112.483-37.4l139.683 139.683c3.4 3.4 7.65 5.1 11.9 5.1s8.783-1.7 11.9-5.1c6.517-6.517 6.517-17.283 0-24.083L332.74 315.35zM41.19 187.85C41.19 103.133 110.04 34 195.04 34c84.717 0 153.85 68.85 153.85 153.85S280.04 341.7 195.04 341.7 41.19 272.567 41.19 187.85z"/></symbol><symbol viewBox="0 0 56.966 56.966" id="search-bold" xmlns="http://www.w3.org/2000/svg"><path d="M55.146 51.887L41.588 37.786A22.926 22.926 0 0 0 46.984 23c0-12.682-10.318-23-23-23s-23 10.318-23 23 10.318 23 23 23c4.761 0 9.298-1.436 13.177-4.162l13.661 14.208c.571.593 1.339.92 2.162.92.779 0 1.518-.297 2.079-.837a3.004 3.004 0 0 0 .083-4.242zM23.984 6c9.374 0 17 7.626 17 17s-7.626 17-17 17-17-7.626-17-17 7.626-17 17-17z"/></symbol></svg>