<?xml version="1.0" encoding="iso-8859-1"?><!DOCTYPE svg PUBLIC "-//W3C//DTD SVG 1.1//EN" "http://www.w3.org/Graphics/SVG/1.1/DTD/svg11.dtd"><svg xmlns="http://www.w3.org/2000/svg" xmlns:xlink="http://www.w3.org/1999/xlink"><symbol viewBox="0 0 512 512" id="cart" xmlns="http://www.w3.org/2000/svg"><path d="M509.867 89.6c-2.133-2.133-4.267-4.267-8.533-4.267H96L85.333 29.867c0-4.267-6.4-8.533-10.667-8.533h-64C4.267 21.333 0 25.6 0 32s4.267 10.667 10.667 10.667h55.467l51.2 260.267c6.4 34.133 38.4 59.733 72.533 59.733H435.2c6.4 0 10.667-4.267 10.667-10.667 0-6.4-4.267-10.667-10.667-10.667H192c-17.067 0-34.133-8.533-42.667-23.467L460.8 275.2c4.267 0 8.533-4.267 8.533-8.533L512 96s0-4.267-2.133-6.4zM450.133 256l-311.467 40.533-38.4-192H486.4L450.133 256zM181.333 384C151.467 384 128 407.467 128 437.333c0 29.867 23.467 53.333 53.333 53.333 29.867 0 53.333-23.467 53.333-53.333C234.667 407.467 211.2 384 181.333 384zm0 85.333c-17.067 0-32-14.934-32-32s14.933-32 32-32 32 14.934 32 32-14.933 32-32 32zM394.667 384c-29.867 0-53.333 23.467-53.333 53.333 0 29.867 23.467 53.333 53.333 53.333 29.867 0 53.333-23.467 53.333-53.333S424.533 384 394.667 384zm0 85.333c-17.067 0-32-14.934-32-32s14.933-32 32-32 32 14.934 32 32-14.934 32-32 32z"/></symbol><symbol viewBox="0 0 512 512" id="close" xmlns="http://www.w3.org/2000/svg"><path d="M505.943 6.058c-8.077-8.077-21.172-8.077-29.249 0L6.058 476.693c-8.077 8.077-8.077 21.172 0 29.249A20.612 20.612 0 0 0 20.683 512a20.614 20.614 0 0 0 14.625-6.059L505.943 35.306c8.076-8.076 8.076-21.171 0-29.248z"/><path d="M505.942 476.694L35.306 6.059c-8.076-8.077-21.172-8.077-29.248 0-8.077 8.076-8.077 21.171 0 29.248l470.636 470.636a20.616 20.616 0 0 0 14.625 6.058 20.615 20.615 0 0 0 14.624-6.057c8.075-8.078 8.075-21.173-.001-29.25z"/></symbol><symbol viewBox="0 0 47.971 47.971" id="close--bold" xmlns="http://www.w3.org/2000/svg"><path d="M28.228 23.986L47.092 5.122a2.998 2.998 0 0 0 0-4.242 2.998 2.998 0 0 0-4.242 0L23.986 19.744 5.121.88a2.998 2.998 0 0 0-4.242 0 2.998 2.998 0 0 0 0 4.242l18.865 18.864L.879 42.85a2.998 2.998 0 1 0 4.242 4.241l18.865-18.864L42.85 47.091c.586.586 1.354.879 2.121.879s1.535-.293 2.121-.879a2.998 2.998 0 0 0 0-4.242L28.228 23.986z"/></symbol><symbol viewBox="0 0 512 512" id="filter" xmlns="http://www.w3.org/2000/svg"><path d="M504.396 21.498H7.604A7.604 7.604 0 0 0 0 29.102v74.516c0 1.814.649 3.568 1.828 4.946l199.068 232.474v66.724a7.605 7.605 0 0 0 15.208 0v-61.931h79.793V431.9l-79.793 38.84v-37.631a7.605 7.605 0 0 0-15.208 0v49.79a7.605 7.605 0 0 0 10.933 6.838l95.001-46.243a7.603 7.603 0 0 0 4.275-6.837V341.04l199.068-232.474a7.603 7.603 0 0 0 1.828-4.946V29.102a7.606 7.606 0 0 0-7.605-7.604zm-7.604 74.516H377.299a7.605 7.605 0 0 0 0 15.208h110.575l-187.873 219.4H212L24.126 111.221h327.827a7.605 7.605 0 0 0 0-15.208H15.208V36.706h481.584v59.308z"/></symbol><symbol viewBox="0 0 971.986 971.986" id="filter-btn" xmlns="http://www.w3.org/2000/svg"><path d="M370.216 459.3c10.2 11.1 15.8 25.6 15.8 40.6v442c0 26.601 32.1 40.101 51.1 21.4l123.3-141.3c16.5-19.8 25.6-29.601 25.6-49.2V500c0-15 5.7-29.5 15.8-40.601L955.615 75.5c26.5-28.8 6.101-75.5-33.1-75.5h-873c-39.2 0-59.7 46.6-33.1 75.5l353.801 383.8z"/></symbol><symbol viewBox="0 0 612 612" id="list" xmlns="http://www.w3.org/2000/svg"><path d="M43.714 437.143C19.562 437.143 0 456.705 0 480.857s19.562 43.714 43.714 43.714c24.13 0 43.714-19.562 43.714-43.714.001-24.13-19.562-43.714-43.714-43.714zm153-284.143h393.428c12.065 0 21.857-9.792 21.857-21.857s-9.792-21.857-21.857-21.857H196.714c-12.065 0-21.857 9.792-21.857 21.857S184.649 153 196.714 153zm-153 109.286C19.562 262.286 0 281.87 0 306c0 24.152 19.562 43.714 43.714 43.714 24.13 0 43.714-19.584 43.714-43.714.001-24.13-19.562-43.714-43.714-43.714zm546.429 21.857H196.714c-12.065 0-21.857 9.792-21.857 21.857s9.792 21.857 21.857 21.857h393.428c12.065 0 21.857-9.792 21.857-21.857.001-12.065-9.791-21.857-21.856-21.857zm0 174.857H196.714c-12.065 0-21.857 9.792-21.857 21.857 0 12.064 9.792 21.856 21.857 21.856h393.428c12.065 0 21.857-9.792 21.857-21.856C612 468.792 602.208 459 590.143 459zM43.714 87.429C19.562 87.429 0 107.013 0 131.143s19.562 43.714 43.714 43.714c24.13 0 43.714-19.584 43.714-43.714S67.866 87.429 43.714 87.429z"/></symbol><symbol viewBox="0 0 512 512" id="location" xmlns="http://www.w3.org/2000/svg"><path d="M256 0C156.748 0 76 80.748 76 180c0 33.534 9.289 66.26 26.869 94.652l142.885 230.257A15 15 0 0 0 258.499 512h.119a14.997 14.997 0 0 0 12.75-7.292L410.611 272.22C427.221 244.428 436 212.539 436 180 436 80.748 355.252 0 256 0zm128.866 256.818L258.272 468.186l-129.905-209.34C113.734 235.214 105.8 207.95 105.8 180c0-82.71 67.49-150.2 150.2-150.2S406.1 97.29 406.1 180c0 27.121-7.411 53.688-21.234 76.818z"/><path d="M256 90c-49.626 0-90 40.374-90 90 0 49.309 39.717 90 90 90 50.903 0 90-41.233 90-90 0-49.626-40.374-90-90-90zm0 150.2c-33.257 0-60.2-27.033-60.2-60.2 0-33.084 27.116-60.2 60.2-60.2s60.1 27.116 60.1 60.2c0 32.683-26.316 60.2-60.1 60.2z"/></symbol><symbol viewBox="0 0 31.444 31.444" id="plus" xmlns="http://www.w3.org/2000/svg"><path d="M1.119 16.841a1.118 1.118 0 0 1-1.111-1.127c0-.619.492-1.111 1.111-1.111h13.475V1.127A1.133 1.133 0 0 1 15.722 0c.619 0 1.111.508 1.111 1.127v13.476h13.475c.619 0 1.127.492 1.127 1.111s-.508 1.127-1.127 1.127H16.833v13.476c0 .619-.492 1.127-1.111 1.127a1.131 1.131 0 0 1-1.127-1.127V16.841H1.119z"/></symbol><symbol viewBox="0 0 286.376 286.376" id="plus--bold" xmlns="http://www.w3.org/2000/svg"><path d="M268.477 125.29H161.086V17.899c0-9.885-8.013-17.898-17.898-17.898S125.29 8.014 125.29 17.899v107.39H17.9c-9.885 0-17.9 8.013-17.9 17.898s8.015 17.898 17.9 17.898h107.39v107.39c0 9.885 8.013 17.898 17.898 17.898s17.898-8.013 17.898-17.898v-107.39h107.391c9.885 0 17.898-8.014 17.898-17.898.001-9.884-8.013-17.897-17.898-17.897z" fill-rule="evenodd" clip-rule="evenodd"/></symbol><symbol viewBox="0 0 2133.335 405.785" id="rating" xmlns="http://www.w3.org/2000/svg"><path fill="#fac917" d="M320 258.969l25.173 146.816-131.84-69.316-131.848 69.316 25.182-146.816L0 154.995l147.409-21.419L213.333 0l65.916 133.576 147.418 21.419z"/><path fill="#fac917" d="M426.667 154.995l147.409-21.419L640 0l65.916 133.576 147.418 21.419-106.667 103.974 25.173 146.816L640 336.469l-131.848 69.316 25.182-146.816zM853.334 154.995l147.409-21.419L1066.667 0l65.916 133.576 147.418 21.419-106.667 103.974 25.173 146.816-131.84-69.316-131.848 69.316 25.182-146.816zM1600.001 258.969l25.173 146.816-131.84-69.316-131.848 69.316 25.182-146.816-106.667-103.974 147.409-21.419L1493.334 0l65.916 133.576 147.418 21.419z"/><path fill="#fac917" d="M1706.668 154.995l147.409-21.419L1920.001 0l65.916 133.576 147.418 21.419-106.667 103.974 25.173 146.816-131.84-69.316-131.848 69.316 25.182-146.816z"/></symbol><symbol viewBox="0 0 2133.335 405.785" id="rating--gray" xmlns="http://www.w3.org/2000/svg"><path fill-opacity=".118" d="M320 258.969l25.173 146.816-131.84-69.316-131.848 69.316 25.182-146.816L0 154.995l147.409-21.419L213.333 0l65.916 133.576 147.418 21.419z"/><path fill-opacity=".118" d="M426.667 154.995l147.409-21.419L640 0l65.916 133.576 147.418 21.419-106.667 103.974 25.173 146.816L640 336.469l-131.848 69.316 25.182-146.816zM853.334 154.995l147.409-21.419L1066.667 0l65.916 133.576 147.418 21.419-106.667 103.974 25.173 146.816-131.84-69.316-131.848 69.316 25.182-146.816zM1600.001 258.969l25.173 146.816-131.84-69.316-131.848 69.316 25.182-146.816-106.667-103.974 147.409-21.419L1493.334 0l65.916 133.576 147.418 21.419z"/><path fill-opacity=".118" d="M1706.668 154.995l147.409-21.419L1920.001 0l65.916 133.576 147.418 21.419-106.667 103.974 25.173 146.816-131.84-69.316-131.848 69.316 25.182-146.816z"/></symbol><symbol viewBox="0 0 483.083 483.083" id="search" xmlns="http://www.w3.org/2000/svg"><path d="M332.74 315.35c30.883-33.433 50.15-78.2 50.15-127.5C382.89 84.433 298.74 0 195.04 0S7.19 84.433 7.19 187.85 91.34 375.7 195.04 375.7c42.217 0 81.033-13.883 112.483-37.4l139.683 139.683c3.4 3.4 7.65 5.1 11.9 5.1s8.783-1.7 11.9-5.1c6.517-6.517 6.517-17.283 0-24.083L332.74 315.35zM41.19 187.85C41.19 103.133 110.04 34 195.04 34c84.717 0 153.85 68.85 153.85 153.85S280.04 341.7 195.04 341.7 41.19 272.567 41.19 187.85z"/></symbol><symbol viewBox="0 0 56.966 56.966" id="search-bold" xmlns="http://www.w3.org/2000/svg"><path d="M55.146 51.887L41.588 37.786A22.926 22.926 0 0 0 46.984 23c0-12.682-10.318-23-23-23s-23 10.318-23 23 10.318 23 23 23c4.761 0 9.298-1.436 13.177-4.162l13.661 14.208c.571.593 1.339.92 2.162.92.779 0 1.518-.297 2.079-.837a3.004 3.004 0 0 0 .083-4.242zM23.984 6c9.374 0 17 7.626 17 17s-7.626 17-17 17-17-7.626-17-17 7.626-17 17-17z"/></symbol><symbol viewBox="0 0 16 16" id="social__instagram" xmlns="http://www.w3.org/2000/svg"><defs><path id="na" d="M891 1969.53c0 .24-.25.47-.5.47h-11.23c-.24 0-.59-.23-.59-.47v-6.8h1.62c-.11.55-.17.81-.17 1.25a4.76 4.76 0 0 0 9.52 0c0-.44-.06-.7-.17-1.26H891zm-6.11-8.56a3 3 0 1 1 0 6.02 3 3 0 0 1 0-6.02zm5.58-2.73c.3 0 .53.24.53.54v1.72c0 .3-.24.54-.53.54h-1.73a.54.54 0 0 1-.54-.54v-1.72c0-.3.24-.54.54-.54zm.36-2.24h-11.92c-1.03 0-1.91.97-1.91 1.99v11.94c0 1.02.88 1.75 1.9 1.75h11.93c1.03 0 1.85-.73 1.85-1.75v-11.94c0-1.02-.82-1.99-1.85-1.99z"/></defs><use xlink:href="#na" transform="translate(-877 -1956)"/></symbol><symbol viewBox="0 0 18 15" id="social__telegram" xmlns="http://www.w3.org/2000/svg"><defs><path id="oa" d="M981.54 1964.85l7.72-4.76c.14-.08.28.1.16.22l-6.37 5.92c-.23.2-.37.49-.41.79l-.22 1.6c-.03.22-.33.25-.39.04l-.83-2.94a.76.76 0 0 1 .34-.87zm-5.24-.7l3.95 1.48 1.53 4.92c.1.32.49.43.74.22l2.2-1.8a.66.66 0 0 1 .8-.01l3.98 2.88c.27.2.66.05.73-.28l2.9-14a.47.47 0 0 0-.62-.53l-16.21 6.26c-.4.15-.4.72 0 .87z"/></defs><use xlink:href="#oa" transform="translate(-976 -1957)"/></symbol><symbol viewBox="0 0 18 11" id="social__vk" xmlns="http://www.w3.org/2000/svg"><defs><path id="pa" d="M1043.13 1967.2c-.53-.65-1.16-1.2-1.75-1.77-.54-.52-.57-.82-.14-1.43.47-.65.97-1.28 1.45-1.94.44-.6.89-1.22 1.12-1.95.15-.46.02-.67-.46-.75a1.47 1.47 0 0 0-.25-.02h-2.83c-.35 0-.54.15-.67.46-.16.41-.33.83-.53 1.23-.45.92-.96 1.8-1.66 2.55-.16.17-.33.37-.59.29-.32-.12-.42-.66-.41-.84v-3.26c-.07-.47-.17-.68-.63-.77h-2.95c-.39 0-.58.15-.8.4-.12.14-.15.23.1.28.48.1.76.4.83.9.12.78.11 1.56.04 2.35-.02.23-.06.46-.15.67-.14.34-.37.4-.67.2a2.73 2.73 0 0 1-.65-.72c-.7-1-1.27-2.07-1.73-3.2-.13-.33-.36-.52-.7-.53h-2.55c-.52.01-.67.26-.46.72a31.63 31.63 0 0 0 3.3 5.88 8.21 8.21 0 0 0 2.5 2.35c1.17.66 2.41.86 3.73.8.62-.03.8-.19.83-.8.02-.42.07-.84.27-1.22.2-.37.51-.44.87-.2.18.1.33.26.47.41.34.38.68.77 1.04 1.14.45.46.98.73 1.66.67h2.6c.42-.03.64-.54.4-1-.17-.33-.4-.63-.63-.9z"/></defs><use xlink:href="#pa" transform="translate(-1026 -1959)"/></symbol><symbol viewBox="0 0 17 19" id="social__youtube" xmlns="http://www.w3.org/2000/svg"><defs><path id="qa" d="M941.11 1966.99a.42.42 0 0 0-.16-.34.6.6 0 0 0-.38-.13h-.05a.53.53 0 0 0-.36.14c-.1.09-.15.2-.15.33l-.02.6h1.1zm.86 2.07c.03.14.04.27.05.39 0 .36-.1.66-.33.88-.3.31-.65.48-1.04.5h-.1c-.35 0-.68-.13-1-.39-.34-.27-.51-.73-.51-1.38v-1.53c0-.46.05-.82.15-1.08.1-.26.26-.46.48-.61.18-.13.39-.2.62-.24.24-.03.47-.02.7.03.23.05.43.14.6.28.17.13.27.32.3.54.04.13.06.32.07.56l.01.74v.68h-1.98v1.19c0 .13.04.24.13.31.09.08.2.11.33.11h.18c.13 0 .24-.03.34-.11.1-.07.14-.18.14-.31v-.56h.86zm-4.47-8.31c.09.15.18.26.3.34.12.08.28.12.47.12.16 0 .3-.04.43-.12.11-.1.22-.22.34-.39l-.02.41h1.27v-5.09h-1v3.97c0 .1-.04.19-.13.26a.43.43 0 0 1-.3.11.41.41 0 0 1-.3-.1.36.36 0 0 1-.1-.27v-3.97h-1.08v3.98a1.9 1.9 0 0 0 .06.54l.06.21zm-.89 5.68c-.1.08-.15.17-.15.27v2.9c0 .1.05.18.15.26.1.07.22.1.36.1a.6.6 0 0 0 .35-.1c.1-.08.16-.17.16-.27v-2.9c0-.09-.05-.18-.16-.26a.57.57 0 0 0-.35-.12.58.58 0 0 0-.36.12zm1.74 2.95c0 .3-.05.58-.14.82a1 1 0 0 1-.4.51.8.8 0 0 1-.62.07 2.14 2.14 0 0 1-.83-.47l-.08.4-.95.03v-6.6h1.15v1.92c.36-.25.67-.38.95-.38a.8.8 0 0 1 .4.1c.35.2.52.55.52 1.04v2.56zm-3.73-12.19c0-.15.06-.27.16-.38.1-.1.22-.15.35-.15a.5.5 0 0 1 .36.15c.1.1.15.23.15.38v2.71c0 .14-.05.26-.15.36a.5.5 0 0 1-.72 0 .5.5 0 0 1-.15-.36zm-1.02 2.02c0 .46.03.8.07 1.03.07.24.16.42.26.56.1.17.25.3.46.36.22.08.47.13.74.13s.5-.05.72-.15c.17-.07.33-.2.48-.41.15-.24.23-.45.25-.64.05-.21.08-.55.08-1.03v-1.3c0-.35-.03-.63-.08-.84-.05-.2-.12-.36-.22-.51-.14-.21-.3-.36-.51-.44-.21-.1-.47-.15-.78-.15-.35 0-.63.08-.86.25-.22.13-.38.35-.49.66-.08.3-.12.68-.12 1.14zm1.05 11.58l-.95-.02.02-.61c-.06.11-.17.22-.31.33a1.87 1.87 0 0 1-1 .33.86.86 0 0 1-.47-.13.48.48 0 0 1-.24-.37l-.04-.43c-.02-.08-.03-.2-.02-.37l.02-.6-.03-3.06h1.15l.02 3.11-.01.5c-.01.13 0 .22.01.25.09.24.2.33.37.27.16-.07.26-.16.3-.3.03-.03.05-.1.04-.23v-3.6h1.14zm-3.6-9.53h1.21v-3.9l1.44-3.36h-1.33l-.76 2.5-.77-2.5h-1.33l1.53 3.35zm-1.71 9.53v-5.8h-1.2v-.85h3.71v.88h-1.37v5.77zm14.33-6.09c0-.32-.07-.63-.22-.92-.15-.3-.34-.55-.6-.77a3.01 3.01 0 0 0-1.93-.7h-11.19a2.88 2.88 0 0 0-2.51 1.47c-.15.29-.22.6-.22.92v5.48c0 .34.07.65.22.94.14.29.34.54.6.76a2.83 2.83 0 0 0 1.91.7h11.2a3 3 0 0 0 1.93-.7c.25-.22.44-.47.59-.76.14-.29.22-.6.22-.94v-5.48z"/></defs><use xlink:href="#qa" transform="translate(-927 -1954)"/></symbol></svg>